<?xml version="1.0" encoding="utf-8"?>
<!-- Generator: Adobe Illustrator 17.0.0, SVG Export Plug-In . SVG Version: 6.00 Build 0)  -->
<!DOCTYPE svg PUBLIC "-//W3C//DTD SVG 1.1//EN" "http://www.w3.org/Graphics/SVG/1.1/DTD/svg11.dtd">
<svg version="1.1" id="Layer_1" xmlns="http://www.w3.org/2000/svg" xmlns:xlink="http://www.w3.org/1999/xlink" x="0px" y="0px"
	 width="360px" height="360px" viewBox="0 0 360 360" enable-background="new 0 0 360 360" xml:space="preserve">
<g>
	<g>
		<circle fill="#6F439A" cx="180.678" cy="179.178" r="179.178"/>
		<path fill="#FFFFFF" d="M180.678,72.876c-28.849,0-32.523,0.12-43.846,0.663s-19.032,2.289-25.778,4.939
			c-6.986,2.71-12.949,6.324-18.851,12.287c-5.902,5.902-9.516,11.865-12.287,18.851c-2.65,6.746-4.457,14.515-4.939,25.778
			c-0.482,11.323-0.663,14.937-0.663,43.846c0,28.849,0.12,32.463,0.663,43.846c0.542,11.323,2.289,19.032,4.939,25.778
			c2.71,6.986,6.324,12.949,12.287,18.851c5.902,5.902,11.865,9.576,18.851,12.287c6.746,2.65,14.515,4.397,25.778,4.939
			c11.323,0.542,14.937,0.663,43.846,0.663c28.849,0,32.463-0.12,43.846-0.663c11.323-0.542,19.032-2.289,25.838-4.939
			c6.986-2.71,12.889-6.384,18.791-12.287c5.902-5.902,9.516-11.865,12.286-18.851c2.59-6.746,4.397-14.455,4.939-25.778
			c0.482-11.323,0.663-14.937,0.663-43.846c0-28.849-0.12-32.463-0.663-43.846c-0.542-11.323-2.349-19.032-4.939-25.778
			c-2.71-6.986-6.384-12.949-12.286-18.851c-5.902-5.902-11.805-9.516-18.851-12.287c-6.806-2.65-14.515-4.397-25.838-4.939
			C213.141,72.996,209.528,72.876,180.678,72.876L180.678,72.876z M171.162,92.028c2.831,0,5.963,0,9.516,0
			c28.367,0,31.74,0.12,42.943,0.602c10.359,0.482,15.96,2.228,19.755,3.674c4.939,1.927,8.492,4.216,12.226,7.95
			c3.734,3.734,6.023,7.288,7.95,12.226c1.445,3.734,3.192,9.396,3.674,19.755c0.482,11.202,0.602,14.575,0.602,42.943
			s-0.12,31.74-0.602,42.943c-0.482,10.359-2.228,15.96-3.674,19.755c-1.927,4.939-4.216,8.492-7.95,12.226
			c-3.734,3.734-7.227,6.023-12.226,7.95c-3.734,1.445-9.396,3.192-19.755,3.674c-11.202,0.482-14.575,0.602-42.943,0.602
			s-31.74-0.12-42.943-0.602c-10.359-0.482-15.96-2.228-19.755-3.674c-4.939-1.927-8.492-4.216-12.226-7.95
			c-3.734-3.734-6.023-7.288-7.95-12.226c-1.445-3.734-3.192-9.396-3.674-19.755c-0.482-11.202-0.602-14.575-0.602-42.943
			s0.12-31.74,0.602-42.943c0.482-10.359,2.228-15.96,3.674-19.755c1.927-4.939,4.216-8.492,7.95-12.226
			c3.734-3.734,7.288-6.023,12.226-7.95c3.734-1.445,9.396-3.192,19.755-3.674C147.553,92.149,151.347,92.028,171.162,92.028
			L171.162,92.028z M237.413,109.675c-7.047,0-12.768,5.722-12.768,12.768c0,7.047,5.722,12.768,12.768,12.768
			c7.047,0,12.768-5.722,12.768-12.768C250.181,115.397,244.46,109.675,237.413,109.675L237.413,109.675z M180.678,124.612
			c-30.174,0-54.567,24.453-54.567,54.567c0,30.174,24.453,54.567,54.567,54.567c30.174,0,54.567-24.453,54.567-54.567
			C235.245,149.004,210.853,124.612,180.678,124.612L180.678,124.612z M180.678,143.764c19.574,0,35.414,15.84,35.414,35.414
			s-15.84,35.414-35.414,35.414s-35.414-15.84-35.414-35.414S161.104,143.764,180.678,143.764z"/>
	</g>
</g>
</svg>
