<?xml version="1.0" encoding="utf-8"?>
<!-- Generator: Adobe Illustrator 21.0.0, SVG Export Plug-In . SVG Version: 6.00 Build 0)  -->
<svg version="1.1" id="Layer_1" xmlns="http://www.w3.org/2000/svg" xmlns:xlink="http://www.w3.org/1999/xlink" x="0px" y="0px"
	 viewBox="0 0 357.4 357.4" style="enable-background:new 0 0 357.4 357.4;" xml:space="preserve">
<style type="text/css">
	.st0{fill:#6F439A;}
	.st1{fill:#FFFFFF;}
</style>
<circle class="st0" cx="178.7" cy="178.7" r="178.7"/>
<g>
	<path class="st1" d="M198,156.7l77.7-47.9c-4.8-5.1-11.6-8.3-19.2-8.3H100.9c-7.6,0-14.4,3.2-19.2,8.4l77.6,47.9
		C171.2,164.1,186.1,164.1,198,156.7z"/>
	<path class="st1" d="M198,176.7c-11.9,7.4-26.9,7.4-38.7,0l-77.6-47.9c-4.4,4.7-7.1,11-7.1,17.9v83.8c0,14.5,11.8,26.3,26.3,26.3
		h155.6c14.5,0,26.3-11.8,26.3-26.3v-83.8c0-7-2.7-13.3-7.1-18L198,176.7z"/>
</g>
</svg>
