<?xml version="1.0" encoding="utf-8"?>
<!-- Generator: Adobe Illustrator 17.0.0, SVG Export Plug-In . SVG Version: 6.00 Build 0)  -->
<!DOCTYPE svg PUBLIC "-//W3C//DTD SVG 1.1//EN" "http://www.w3.org/Graphics/SVG/1.1/DTD/svg11.dtd">
<svg version="1.1" id="Layer_1" xmlns="http://www.w3.org/2000/svg" xmlns:xlink="http://www.w3.org/1999/xlink" x="0px" y="0px"
	 width="360px" height="360px" viewBox="0 0 360 360" enable-background="new 0 0 360 360" xml:space="preserve">
<path fill="#6F439A" d="M180.003,0C80.59,0,0,80.59,0,180.003s80.59,180.003,180.003,180.003s180.003-80.59,180.003-180.003
	S279.416,0,180.003,0z M134.126,264.827H93.392V142.263h40.735V264.827z M113.756,125.534h-0.258
	c-13.674,0-22.518-9.42-22.518-21.186c0-12.024,9.114-21.168,23.046-21.168s22.518,9.15,22.782,21.168
	C136.808,116.114,127.958,125.534,113.756,125.534z M281.027,264.827v0.006h-40.735v-65.575c0-16.47-5.892-27.709-20.64-27.709
	c-11.25,0-17.952,7.578-20.892,14.898c-1.08,2.616-1.344,6.276-1.344,9.93v68.449h-40.741c0,0,0.54-111.062,0-122.564h40.741v17.364
	c5.4-8.346,15.09-20.244,36.715-20.244c26.796,0,46.897,17.52,46.897,55.171V264.827z"/>
</svg>
